<svg xmlns="http://www.w3.org/2000/svg" version="1.1" xmlns:xlink="http://www.w3.org/1999/xlink" width="512" height="512" x="0" y="0" viewBox="0 0 25 25" style="enable-background:new 0 0 512 512" xml:space="preserve" class=""><g><g fill="#000"><path d="M17.94 11.95c1.65 0 3-1.35 3-3s-1.35-3-3-3-3 1.35-3 3 1.35 3 3 3zm0-4c.55 0 1 .45 1 1s-.45 1-1 1-1-.45-1-1 .45-1 1-1zM18 12.95c-1.12 0-2.19.49-2.94 1.34a.998.998 0 1 0 1.5 1.32c.37-.42.89-.66 1.44-.66 1.07 0 1.95.9 1.95 2.01v3.5c0 .55.45 1 1 1s1-.45 1-1v-3.5c0-2.21-1.77-4.01-3.95-4.01zM9.88 11.96a4.511 4.511 0 0 0 0-9.02 4.511 4.511 0 0 0 0 9.02zm0-7.01c1.38 0 2.51 1.12 2.51 2.51s-1.12 2.51-2.51 2.51c-1.39 0-2.51-1.12-2.51-2.51s1.12-2.51 2.51-2.51zM9.93 12.95c-2.76 0-5 2.32-5 5.16v3.84c0 .55.45 1 1 1s1-.45 1-1v-3.84c0-1.74 1.35-3.16 3-3.16s3 1.42 3 3.16v3.84c0 .55.45 1 1 1s1-.45 1-1v-3.84c0-2.85-2.24-5.16-5-5.16z" fill="#5100c9" opacity="1" data-original="#000000" class=""></path></g></g></svg>