<svg xmlns="http://www.w3.org/2000/svg" version="1.1" xmlns:xlink="http://www.w3.org/1999/xlink" width="512" height="512" x="0" y="0" viewBox="0 0 24 25" style="enable-background:new 0 0 512 512" xml:space="preserve" class=""><g><g fill="#000"><path d="M20.99 11.04c-.55 0-1 .45-1 1 0 4.4-3.58 7.99-7.99 7.99s-7.99-3.58-7.99-7.99S7.59 4.05 12 4.05c.55 0 1-.45 1-1s-.45-1-1-1c-5.51 0-9.99 4.48-9.99 9.99s4.48 9.99 9.99 9.99 9.99-4.48 9.99-9.99c0-.55-.45-1-1-1z" fill="#5100c9" opacity="1" data-original="#000000" class=""></path><path d="M8.71 10.34a.996.996 0 1 0-1.41 1.41L10.56 15c.36.36.85.57 1.36.57h.12a1.9 1.9 0 0 0 1.4-.74l6.35-8.17a1 1 0 0 0-.17-1.4 1 1 0 0 0-1.4.17l-6.3 8.11-3.2-3.2z" fill="#5100c9" opacity="1" data-original="#000000" class=""></path></g></g></svg>