<svg xmlns="http://www.w3.org/2000/svg" version="1.1" xmlns:xlink="http://www.w3.org/1999/xlink" width="512" height="512" x="0" y="0" viewBox="0 0 25 25" style="enable-background:new 0 0 512 512" xml:space="preserve" class=""><g><path fill="#5100c9" d="M19.44 11.02h-1c-.41 0-.79.11-1.13.28-.2-.3-.46-.66-.82-1.03-.75-.78-.91-1-1.15-1.44-.28-.5-.86-1.69-1.15-2.34-.11-.25-.21-.45-.28-.61-.05-.09-.09-.17-.11-.23v-.06c.03-.34.08-.98-.2-1.61-.17-.38-.47-.67-.85-.81-.61-.22-1.23-.03-1.65.17-1.05.5-1.44 1.3-1.58 1.88-.25 1.02 0 1.83.31 2.86.17.55.27.97.33 1.27-.69-.17-1.68-.36-2.98-.21-1.2.14-3.22.84-3.23 3.84 0 1.93.6 4.8 2.33 6.52 1 1 2.23 1.5 3.66 1.5.32 0 .92-.02 1.53-.03.58-.02 1.17-.03 1.48-.03.64 0 3-.2 3.42-.29.19-.04.44-.1.61-.14.42.31.92.49 1.48.49h1a2.5 2.5 0 0 0 2.5-2.5v-5a2.5 2.5 0 0 0-2.5-2.5zm-6.51 7.93c-.32 0-.93.02-1.53.03-.58.02-1.17.03-1.47.03-.89 0-1.62-.3-2.24-.92-1.2-1.21-1.75-3.49-1.74-5.11 0-1.4.59-1.76 1.47-1.86 1.08-.13 1.89.07 2.48.21.57.14 1.06.26 1.56.02 1.14-.55.82-2.19.3-3.87-.29-.93-.4-1.32-.28-1.79.05-.2.16-.35.36-.48 0 .07 0 .15-.01.21 0 .11-.01.2-.01.27 0 .39.15.7.32 1.05.07.14.15.31.25.53.31.71.92 1.96 1.23 2.51.35.63.62.97 1.45 1.84.62.65.87 1.23.88 1.25.02.04.05.07.08.11-.03.17-.05.34-.05.51v5c0 .06.01.12.02.18h-.02c-.3.06-2.46.25-3.01.25zm7.01-.43c0 .27-.23.5-.5.5h-1c-.27 0-.5-.23-.5-.5v-5c0-.27.23-.5.5-.5h1c.27 0 .5.23.5.5z" opacity="1" data-original="#000000" class=""></path></g></svg>