<svg xmlns="http://www.w3.org/2000/svg" version="1.1" xmlns:xlink="http://www.w3.org/1999/xlink" width="512" height="512" x="0" y="0" viewBox="0 0 25 25" style="enable-background:new 0 0 512 512" xml:space="preserve" class=""><g><path fill="#5100c9" d="m19.88 12.49-3.43-2.43V8.11l2.62-2.07c.48-.38.75-.93.75-1.54v-.52c0-1.08-.89-1.96-1.98-1.96H7.65c-1.09 0-1.98.88-1.98 1.96v.66c0 .62.3 1.21.81 1.58l2.56 1.84.02 1.96-3.04 2.2c-.49.36-.8.94-.81 1.54v.27c-.02.53.18 1.03.55 1.4.38.38.88.59 1.42.59h4.73v5c0 .55.45 1 1 1s1-.45 1-1v-5h4.81c1.08 0 1.97-.88 1.98-1.95 0-.63-.3-1.23-.82-1.6zM7.21 14.04v-.19l3.03-2.2c.51-.37.81-.96.81-1.58v-2c0-.62-.3-1.21-.81-1.58L7.68 4.65l-.02-.62 10.17-.04v.49l-2.62 2.07c-.48.37-.75.93-.75 1.54v1.98c0 .63.31 1.22.82 1.59l3.45 2.39H7.22z" opacity="1" data-original="#000000" class=""></path></g></svg>